{
  "accessors": [
    {
      "bufferView": 2,
      "componentType": 5126,
      "count": 22258,
      "max": [
        2213.454345703125,
        573.196533203125,
        1683.19091796875
      ],
      "min": [
        -1760.926513671875,
        -635.4661254882813,
        -2291.18994140625
      ],
      "type": "VEC3"
    },
    {
      "bufferView": 2,
      "byteOffset": 267096,
      "componentType": 5126,
      "count": 22258,
      "type": "VEC3"
    },
    {
      "bufferView": 1,
      "componentType": 5126,
      "count": 22258,
      "type": "VEC2"
    },
    {
      "bufferView": 0,
      "componentType": 5125,
      "count": 51990,
      "type": "SCALAR"
    },
    {
      "bufferView": 2,
      "byteOffset": 534192,
      "componentType": 5126,
      "count": 10718,
      "max": [
        2214.46337890625,
        545.215087890625,
        1564.1312255859375
      ],
      "min": [
        -1761.9359130859375,
        -603.1096801757813,
        -1767.6544189453125
      ],
      "type": "VEC3"
    },
    {
      "bufferView": 2,
      "byteOffset": 662808,
      "componentType": 5126,
      "count": 10718,
      "type": "VEC3"
    },
    {
      "bufferView": 1,
      "byteOffset": 178064,
      "componentType": 5126,
      "count": 10718,
      "type": "VEC2"
    },
    {
      "bufferView": 0,
      "byteOffset": 207960,
      "componentType": 5125,
      "count": 24498,
      "type": "SCALAR"
    },
    {
      "bufferView": 2,
      "byteOffset": 791424,
      "componentType": 5126,
      "count": 12762,
      "max": [
        1320.8968505859375,
        602.4591674804688,
        683.6236572265625
      ],
      "min": [
        -868.3690795898438,
        69.8299560546875,
        -1291.6224365234375
      ],
      "type": "VEC3"
    },
    {
      "bufferView": 2,
      "byteOffset": 944568,
      "componentType": 5126,
      "count": 12762,
      "type": "VEC3"
    },
    {
      "bufferView": 1,
      "byteOffset": 263808,
      "componentType": 5126,
      "count": 12762,
      "type": "VEC2"
    },
    {
      "bufferView": 0,
      "byteOffset": 305952,
      "componentType": 5125,
      "count": 43956,
      "type": "SCALAR"
    },
    {
      "bufferView": 2,
      "byteOffset": 1097712,
      "componentType": 5126,
      "count": 2255,
      "max": [
        2075.222900390625,
        655.3084716796875,
        1754.669921875
      ],
      "min": [
        -1856.76708984375,
        -191.5414581298828,
        -2029.5919189453125
      ],
      "type": "VEC3"
    },
    {
      "bufferView": 2,
      "byteOffset": 1124772,
      "componentType": 5126,
      "count": 2255,
      "type": "VEC3"
    },
    {
      "bufferView": 1,
      "byteOffset": 365904,
      "componentType": 5126,
      "count": 2255,
      "type": "VEC2"
    },
    {
      "bufferView": 0,
      "byteOffset": 481776,
      "componentType": 5125,
      "count": 5001,
      "type": "SCALAR"
    },
    {
      "bufferView": 2,
      "byteOffset": 1151832,
      "componentType": 5126,
      "count": 602,
      "max": [
        704.7390747070313,
        480.7512512207031,
        1350.3563232421875
      ],
      "min": [
        -714.0029907226563,
        -490.7298889160156,
        -1013.3704833984375
      ],
      "type": "VEC3"
    },
    {
      "bufferView": 2,
      "byteOffset": 1159056,
      "componentType": 5126,
      "count": 602,
      "type": "VEC3"
    },
    {
      "bufferView": 1,
      "byteOffset": 383944,
      "componentType": 5126,
      "count": 602,
      "type": "VEC2"
    },
    {
      "bufferView": 0,
      "byteOffset": 501780,
      "componentType": 5125,
      "count": 1416,
      "type": "SCALAR"
    },
    {
      "bufferView": 2,
      "byteOffset": 1166280,
      "componentType": 5126,
      "count": 3741,
      "max": [
        838.9794311523438,
        253.3059844970703,
        345.0539245605469
      ],
      "min": [
        84.60408782958984,
        179.91859436035156,
        -409.3214416503906
      ],
      "type": "VEC3"
    },
    {
      "bufferView": 2,
      "byteOffset": 1211172,
      "componentType": 5126,
      "count": 3741,
      "type": "VEC3"
    },
    {
      "bufferView": 1,
      "byteOffset": 388760,
      "componentType": 5126,
      "count": 3741,
      "type": "VEC2"
    },
    {
      "bufferView": 0,
      "byteOffset": 507444,
      "componentType": 5125,
      "count": 20874,
      "type": "SCALAR"
    },
    {
      "bufferView": 2,
      "byteOffset": 1256064,
      "componentType": 5126,
      "count": 490,
      "max": [
        1981.8907470703125,
        359.484375,
        1831.0283203125
      ],
      "min": [
        -1981.8907470703125,
        -375.23046875,
        -1401.408447265625
      ],
      "type": "VEC3"
    },
    {
      "bufferView": 2,
      "byteOffset": 1261944,
      "componentType": 5126,
      "count": 490,
      "type": "VEC3"
    },
    {
      "bufferView": 1,
      "byteOffset": 418688,
      "componentType": 5126,
      "count": 490,
      "type": "VEC2"
    },
    {
      "bufferView": 0,
      "byteOffset": 590940,
      "componentType": 5125,
      "count": 1434,
      "type": "SCALAR"
    }
  ],
  "asset": {
    "generator": "fab-model-conversion",
    "version": "2.0"
  },
  "bufferViews": [
    {
      "buffer": 0,
      "byteLength": 596676,
      "target": 34963
    },
    {
      "buffer": 0,
      "byteLength": 422608,
      "byteOffset": 596676,
      "byteStride": 8,
      "target": 34962
    },
    {
      "buffer": 0,
      "byteLength": 1267824,
      "byteOffset": 1019284,
      "byteStride": 12,
      "target": 34962
    }
  ],
  "buffers": [
    {
      "byteLength": 2287108,
      "uri": "scene.bin"
    }
  ],
  "images": [
    {
      "uri": "textures/Black_baseColor.png"
    },
    {
      "uri": "textures/Black-Wall_baseColor.jpeg"
    },
    {
      "uri": "textures/Black-Upper_baseColor.png"
    },
    {
      "uri": "textures/Emissive-Red_emissive.png"
    },
    {
      "uri": "textures/Light-Upper_baseColor.png"
    }
  ],
  "materials": [
    {
      "doubleSided": true,
      "emissiveFactor": [
        0.0,
        1.0,
        0.9406652057935943
      ],
      "name": "Emissive_Cyan__0",
      "pbrMetallicRoughness": {
        "baseColorFactor": [
          0.0,
          0.8834365490119369,
          1.0,
          1.0
        ],
        "roughnessFactor": 0.6
      }
    },
    {
      "doubleSided": true,
      "name": "Black",
      "pbrMetallicRoughness": {
        "baseColorTexture": {
          "index": 0
        },
        "roughnessFactor": 0.349331350343163
      }
    },
    {
      "doubleSided": true,
      "emissiveFactor": [
        1.0,
        1.0,
        1.0
      ],
      "emissiveTexture": {
        "index": 1
      },
      "name": "Black-Wall",
      "pbrMetallicRoughness": {
        "baseColorTexture": {
          "index": 1
        },
        "roughnessFactor": 0.8040408205773457
      }
    },
    {
      "doubleSided": true,
      "emissiveFactor": [
        1.0,
        1.0,
        1.0
      ],
      "emissiveTexture": {
        "index": 2
      },
      "name": "Black-Upper",
      "pbrMetallicRoughness": {
        "baseColorTexture": {
          "index": 2
        },
        "roughnessFactor": 0.8040408205773457
      }
    },
    {
      "doubleSided": true,
      "emissiveFactor": [
        1.0,
        1.0,
        1.0
      ],
      "emissiveTexture": {
        "index": 3
      },
      "name": "Emissive-Red",
      "pbrMetallicRoughness": {
        "baseColorFactor": [
          1.0,
          0.0,
          0.0,
          1.0
        ],
        "roughnessFactor": 0.8040408205773457
      }
    },
    {
      "doubleSided": true,
      "emissiveFactor": [
        1.0,
        1.0,
        1.0
      ],
      "emissiveTexture": {
        "index": 4
      },
      "name": "Light-Upper",
      "pbrMetallicRoughness": {
        "baseColorTexture": {
          "index": 4
        },
        "roughnessFactor": 0.8040408205773457
      }
    }
  ],
  "meshes": [
    {
      "name": "Black_Ground_Black_0",
      "primitives": [
        {
          "attributes": {
            "NORMAL": 1,
            "POSITION": 0,
            "TEXCOORD_0": 2
          },
          "indices": 3,
          "material": 1,
          "mode": 4
        }
      ]
    },
    {
      "name": "Black_Wall_Black-Wall_0",
      "primitives": [
        {
          "attributes": {
            "NORMAL": 5,
            "POSITION": 4,
            "TEXCOORD_0": 6
          },
          "indices": 7,
          "material": 2,
          "mode": 4
        }
      ]
    },
    {
      "name": "Black_LightUpper_Black-Upper_0",
      "primitives": [
        {
          "attributes": {
            "NORMAL": 9,
            "POSITION": 8,
            "TEXCOORD_0": 10
          },
          "indices": 11,
          "material": 3,
          "mode": 4
        }
      ]
    },
    {
      "name": "Emissive_Cyan__0",
      "primitives": [
        {
          "attributes": {
            "NORMAL": 13,
            "POSITION": 12,
            "TEXCOORD_0": 14
          },
          "indices": 15,
          "material": 0,
          "mode": 4
        }
      ]
    },
    {
      "name": "Emissive_Red_Emissive-Red_0",
      "primitives": [
        {
          "attributes": {
            "NORMAL": 17,
            "POSITION": 16,
            "TEXCOORD_0": 18
          },
          "indices": 19,
          "material": 4,
          "mode": 4
        }
      ]
    },
    {
      "name": "Light_Upper_Light-Upper_0",
      "primitives": [
        {
          "attributes": {
            "NORMAL": 21,
            "POSITION": 20,
            "TEXCOORD_0": 22
          },
          "indices": 23,
          "material": 5,
          "mode": 4
        }
      ]
    },
    {
      "name": "3_Wall_Hori_1__0",
      "primitives": [
        {
          "attributes": {
            "NORMAL": 25,
            "POSITION": 24,
            "TEXCOORD_0": 26
          },
          "indices": 27,
          "material": 0,
          "mode": 4
        }
      ]
    }
  ],
  "nodes": [
    {
      "children": [
        1
      ],
      "matrix": [
        1.0,
        0.0,
        0.0,
        0.0,
        0.0,
        2.220446049250313e-16,
        -1.0,
        0.0,
        0.0,
        1.0,
        2.220446049250313e-16,
        0.0,
        0.0,
        0.0,
        0.0,
        1.0
      ],
      "name": "Sketchfab_model"
    },
    {
      "children": [
        2
      ],
      "matrix": [
        0.009999999776482582,
        0.0,
        0.0,
        0.0,
        0.0,
        0.0,
        0.009999999776482582,
        0.0,
        0.0,
        -0.009999999776482582,
        0.0,
        0.0,
        0.0,
        0.0,
        0.0,
        1.0
      ],
      "name": "ad1345f11d2c4e0da935587239e40846.fbx"
    },
    {
      "children": [
        3,
        5,
        7,
        9,
        11,
        13,
        15,
        17
      ],
      "name": "RootNode"
    },
    {
      "children": [
        4
      ],
      "matrix": [
        1.0,
        0.0,
        0.0,
        0.0,
        0.0,
        0.9999999999999867,
        1.6292067073209113e-07,
        0.0,
        0.0,
        -1.6292067073209113e-07,
        0.9999999999999867,
        0.0,
        -226.26390075683594,
        508.7339782714844,
        303.9994812011719,
        1.0
      ],
      "name": "Black_Ground"
    },
    {
      "mesh": 0,
      "name": "Black_Ground_Black_0"
    },
    {
      "children": [
        6
      ],
      "matrix": [
        1.0,
        0.0,
        0.0,
        0.0,
        0.0,
        0.9999999999999867,
        1.6292067073209113e-07,
        0.0,
        0.0,
        -1.6292067073209113e-07,
        0.9999999999999867,
        0.0,
        -226.26390075683594,
        508.7339782714844,
        303.9994812011719,
        1.0
      ],
      "name": "Black_Wall"
    },
    {
      "mesh": 1,
      "name": "Black_Wall_Black-Wall_0"
    },
    {
      "children": [
        8
      ],
      "matrix": [
        1.0,
        0.0,
        0.0,
        0.0,
        0.0,
        0.9999999999999867,
        1.6292067073209113e-07,
        0.0,
        0.0,
        -1.6292067073209113e-07,
        0.9999999999999867,
        0.0,
        -226.26390075683594,
        508.7339782714844,
        303.9994812011719,
        1.0
      ],
      "name": "Black_LightUpper"
    },
    {
      "mesh": 2,
      "name": "Black_LightUpper_Black-Upper_0"
    },
    {
      "children": [
        10
      ],
      "matrix": [
        1.0,
        0.0,
        0.0,
        0.0,
        0.0,
        0.9999999999999867,
        1.6292067073209113e-07,
        0.0,
        0.0,
        -1.6292067073209113e-07,
        0.9999999999999867,
        0.0,
        -113.13195037841797,
        107.46369171142578,
        151.99974060058594,
        1.0
      ],
      "name": "Emissive_Cyan"
    },
    {
      "mesh": 3,
      "name": "Emissive_Cyan__0"
    },
    {
      "children": [
        12
      ],
      "matrix": [
        1.0,
        0.0,
        0.0,
        0.0,
        0.0,
        0.9999999999999867,
        1.6292067073209113e-07,
        0.0,
        0.0,
        -1.6292067073209113e-07,
        0.9999999999999867,
        0.0,
        4.631989002227783,
        438.36883544921875,
        303.9994812011719,
        1.0
      ],
      "name": "Emissive_Red"
    },
    {
      "mesh": 4,
      "name": "Emissive_Red_Emissive-Red_0"
    },
    {
      "children": [
        14
      ],
      "matrix": [
        1.0,
        0.0,
        0.0,
        0.0,
        0.0,
        0.9999999999999867,
        1.6292067073209113e-07,
        0.0,
        0.0,
        -1.6292067073209113e-07,
        0.9999999999999867,
        0.0,
        -461.791748046875,
        451.18402099609375,
        32.13375473022461,
        1.0
      ],
      "name": "Light_Upper"
    },
    {
      "mesh": 5,
      "name": "Light_Upper_Light-Upper_0"
    },
    {
      "children": [
        16
      ],
      "matrix": [
        1.0,
        0.0,
        0.0,
        0.0,
        0.0,
        0.9999999999999867,
        1.6292067073209113e-07,
        0.0,
        0.0,
        -1.6292067073209113e-07,
        0.9999999999999867,
        0.0,
        0.0,
        474.31396484375,
        0.0,
        1.0
      ],
      "name": "3_Wall_Hori_1"
    },
    {
      "mesh": 6,
      "name": "3_Wall_Hori_1__0"
    },
    {
      "children": [
        18
      ],
      "matrix": [
        1.9470718870540082e-05,
        0.0,
        -99.99999999999811,
        0.0,
        0.0,
        100.0,
        0.0,
        0.0,
        99.99999999999811,
        0.0,
        1.9470718870540082e-05,
        0.0,
        0.0,
        300.0,
        2400.0,
        1.0
      ],
      "name": "Camera"
    },
    {
      "name": "Object_18"
    }
  ],
  "samplers": [
    {
      "magFilter": 9729,
      "minFilter": 9987,
      "wrapS": 10497,
      "wrapT": 10497
    }
  ],
  "scene": 0,
  "scenes": [
    {
      "name": "Sketchfab_Scene",
      "nodes": [
        0
      ]
    }
  ],
  "textures": [
    {
      "sampler": 0,
      "source": 0
    },
    {
      "sampler": 0,
      "source": 1
    },
    {
      "sampler": 0,
      "source": 2
    },
    {
      "sampler": 0,
      "source": 3
    },
    {
      "sampler": 0,
      "source": 4
    }
  ]
}
